<svg width="40" height="42" viewBox="0 0 40 42" fill="none" xmlns="http://www.w3.org/2000/svg">
                  <g clip-path="url(#clip0)">
                  <path d="M35.5554 8.95525H19.9999L16.111 4.93021H4.44431C2.30542 4.93021 0.55542 6.74148 0.55542 8.95525V33.1055C0.55542 35.3193 2.30542 37.1306 4.44431 37.1306H35.5554C37.6943 37.1306 39.4443 35.3193 39.4443 33.1055V12.9803C39.4443 10.7665 37.6943 8.95525 35.5554 8.95525ZM25.8332 14.9928C27.9721 14.9928 29.7221 16.8041 29.7221 19.0179C29.7221 21.2316 27.9721 23.0429 25.8332 23.0429C23.6943 23.0429 21.9443 21.2316 21.9443 19.0179C21.9443 16.8041 23.6943 14.9928 25.8332 14.9928ZM33.611 31.093H18.0554V29.0805C18.0554 26.4642 23.3054 25.0554 25.8332 25.0554C28.361 25.0554 33.611 26.4642 33.611 29.0805V31.093Z" fill="white"/>
                  </g>
                  <defs>
                  <clipPath id="clip0">
                  <rect width="38.8889" height="40.2504" fill="white" transform="translate(0.55542 0.905151)"/>
                  </clipPath>
                  </defs>
                </svg>
