<svg width="40" height="42" viewBox="0 0 40 42" fill="none" xmlns="http://www.w3.org/2000/svg">
                  <g clip-path="url(#clip0)">
                  <path d="M28.5068 22.1541H11.4929C10.822 22.1541 10.2776 21.5906 10.2776 20.8963C10.2776 20.2019 10.822 19.6384 11.4929 19.6384H28.5068C29.1776 19.6384 29.722 20.2019 29.722 20.8963C29.722 21.5906 29.1776 22.1541 28.5068 22.1541Z" fill="white"/>
                  <path d="M19.9999 30.9589C19.3291 30.9589 18.7847 30.3954 18.7847 29.701V12.0915C18.7847 11.3971 19.3291 10.8336 19.9999 10.8336C20.6708 10.8336 21.2152 11.3971 21.2152 12.0915V29.701C21.2152 30.3954 20.6708 30.9589 19.9999 30.9589Z" fill="white"/>
                  <path d="M34.9882 41.0215H5.01154C2.55339 41.0215 0.55542 38.9536 0.55542 36.4093V5.38316C0.55542 2.83895 2.55339 0.771027 5.01154 0.771027H34.9882C37.4463 0.771027 39.4443 2.83895 39.4443 5.38316V36.4093C39.4443 38.9536 37.4463 41.0215 34.9882 41.0215V41.0215ZM5.01154 3.28668C3.89506 3.28668 2.98598 4.22759 2.98598 5.38316V36.4093C2.98598 37.5649 3.89506 38.5058 5.01154 38.5058H34.9882C36.1047 38.5058 37.0138 37.5649 37.0138 36.4093V5.38316C37.0138 4.22759 36.1047 3.28668 34.9882 3.28668H5.01154Z" fill="white"/>
                  </g>
                  <defs>
                  <clipPath id="clip0">
                  <rect width="38.8889" height="40.2504" fill="white" transform="translate(0.55542 0.771027)"/>
                  </clipPath>
                  </defs>
                </svg>
