<svg width="40" height="41" viewBox="0 0 40 41" fill="none" xmlns="http://www.w3.org/2000/svg">
                  <g clip-path="url(#clip0)">
                  <path d="M37.6516 38.7784H35.9857V13.7426C35.9857 12.5773 35.0697 11.6293 33.9439 11.6293H30.2203C29.0944 11.6293 28.1784 12.5774 28.1784 13.7426V38.7784H23.9484V25.0857C23.9484 23.9204 23.0324 22.9724 21.9065 22.9724H18.1829C17.057 22.9724 16.1411 23.9205 16.1411 25.0857V38.7784H11.911V31.687C11.911 30.5217 10.995 29.5737 9.86921 29.5737H6.14552C5.01964 29.5737 4.1037 30.5218 4.1037 31.687V38.7784H2.34793C1.92843 38.7784 1.58838 39.1303 1.58838 39.5645C1.58838 39.9987 1.92843 40.3506 2.34793 40.3506H37.6516C38.0711 40.3506 38.4111 39.9987 38.4111 39.5645C38.4111 39.1303 38.0711 38.7784 37.6516 38.7784ZM10.3918 38.7784H5.62272V31.687C5.62272 31.3887 5.8572 31.146 6.14544 31.146H9.86906C10.1573 31.146 10.3918 31.3887 10.3918 31.687V38.7784ZM22.4292 38.7784H17.6601V25.0857C17.6601 24.7874 17.8946 24.5447 18.1828 24.5447H21.9065C22.1946 24.5447 22.4292 24.7874 22.4292 25.0857V38.7784ZM34.4666 38.7784H29.6975V13.7426C29.6975 13.4442 29.932 13.2016 30.2203 13.2016H33.9439C34.2321 13.2016 34.4666 13.4442 34.4666 13.7426V38.7784Z" fill="white"/>
                  <path d="M35.984 0.926926C35.9947 0.712388 35.9217 0.494234 35.7635 0.330402C35.6052 0.16657 35.3944 0.0910219 35.1871 0.102106C35.1749 0.101556 35.1628 0.10022 35.1503 0.10022H30.5551C30.1356 0.10022 29.7955 0.452175 29.7955 0.886361C29.7955 1.32055 30.1356 1.6725 30.5551 1.6725H33.3925L25.8839 9.44414L23.0523 6.51341C22.9098 6.366 22.7166 6.28314 22.5152 6.28314C22.3137 6.28314 22.1205 6.366 21.9781 6.51341L8.32377 20.6459C8.02717 20.9529 8.02717 21.4506 8.32377 21.7577C8.47211 21.9111 8.66648 21.9878 8.86085 21.9878C9.05522 21.9878 9.24966 21.9111 9.39792 21.7576L22.5152 8.18097L25.3468 11.1117C25.6434 11.4187 26.1243 11.4187 26.421 11.1117L34.4668 2.78434V5.44229C34.4668 5.87647 34.8068 6.22843 35.2263 6.22843C35.6458 6.22843 35.9859 5.87647 35.9859 5.44229V0.964975C35.9859 0.952161 35.9846 0.939662 35.984 0.926926Z" fill="white"/>
                  <path d="M6.30056 24.7308C6.72005 24.7308 7.06011 24.3788 7.06011 23.9446C7.06011 23.5105 6.72005 23.1585 6.30056 23.1585C5.88108 23.1585 5.54102 23.5105 5.54102 23.9446C5.54102 24.3788 5.88108 24.7308 6.30056 24.7308Z" fill="white"/>
                  </g>
                  <defs>
                  <clipPath id="clip0">
                  <rect width="38.8889" height="40.2504" fill="white" transform="translate(0.55542 0.10022)"/>
                  </clipPath>
                  </defs>
                </svg>
