<svg width="40" height="41" viewBox="0 0 40 41" fill="none" xmlns="http://www.w3.org/2000/svg">
                  <g clip-path="url(#clip0)">
                  <path d="M36.4483 25.727C35.9134 25.727 35.4798 26.1758 35.4798 26.7294V35.6301C35.4779 37.2904 34.1783 38.6358 32.5742 38.6374H5.39809C3.79396 38.6358 2.49438 37.2904 2.49249 35.6301V9.50737C2.49438 7.84746 3.79396 6.50199 5.39809 6.50004H13.9976C14.5326 6.50004 14.9662 6.05129 14.9662 5.49759C14.9662 4.94429 14.5326 4.49515 13.9976 4.49515H5.39809C2.72479 4.49828 0.558447 6.74047 0.55542 9.50737V35.6305C0.558447 38.3974 2.72479 40.6395 5.39809 40.6427H32.5742C35.2475 40.6395 37.4138 38.3974 37.4169 35.6305V26.7294C37.4169 26.1758 36.9833 25.727 36.4483 25.727V25.727Z" fill="white"/>
                  <path d="M37.0334 1.9158C35.3313 0.154083 32.5718 0.154083 30.8696 1.9158L13.5904 19.8C13.4719 19.9226 13.3864 20.0745 13.3418 20.2413L11.0695 28.732C10.9761 29.0801 11.071 29.4529 11.3177 29.7086C11.5648 29.9639 11.9249 30.0622 12.2613 29.9658L20.4647 27.6136C20.6259 27.5674 20.7727 27.4789 20.8911 27.3564L38.17 9.47173C39.8694 7.70883 39.8694 4.855 38.17 3.09211L37.0334 1.9158ZM15.7007 20.4516L29.8425 5.81437L34.4033 10.5349L20.2611 25.1721L15.7007 20.4516ZM14.7897 22.3437L18.4334 26.1154L13.3932 27.5608L14.7897 22.3437ZM36.8004 8.05421L35.7732 9.11735L31.212 4.39646L32.2396 3.33332C33.185 2.35476 34.718 2.35476 35.6635 3.33332L36.8004 4.50963C37.7443 5.48936 37.7443 7.07487 36.8004 8.05421V8.05421Z" fill="white"/>
                  </g>
                  <defs>
                  <clipPath id="clip0">
                  <rect width="38.8889" height="40.2504" fill="white" transform="translate(0.55542 0.441895)"/>
                  </clipPath>
                  </defs>
                </svg>
