<svg width="25" height="25" viewBox="0 0 25 25" fill="none" xmlns="http://www.w3.org/2000/svg">
  <path d="M12.4585 22.8821H3.1146C2.5415 22.8821 2.07642 22.4169 2.07642 21.8439V3.15615C2.07642 2.58306 2.54155 2.11797 3.1146 2.11797H12.4585C13.0326 2.11797 13.4967 1.65391 13.4967 1.07979C13.4967 0.505664 13.0326 0.0415039 12.4585 0.0415039H3.1146C1.39741 0.0415039 0 1.43896 0 3.15615V21.8438C0 23.561 1.39741 24.9584 3.1146 24.9584H12.4585C13.0326 24.9584 13.4967 24.4944 13.4967 23.9203C13.4967 23.3461 13.0326 22.8821 12.4585 22.8821Z" fill="#0091BD"/>
  <path d="M24.6906 11.7608L18.3783 5.53154C17.9713 5.12871 17.3131 5.13394 16.9103 5.54194C16.5075 5.94995 16.5116 6.60713 16.9207 7.00996L21.4317 11.4618H9.34385C8.76973 11.4618 8.30566 11.9258 8.30566 12.5C8.30566 13.0741 8.76973 13.5382 9.34385 13.5382H21.4317L16.9207 17.99C16.5117 18.3928 16.5085 19.05 16.9103 19.458C17.1138 19.6636 17.3816 19.7674 17.6495 19.7674C17.9132 19.7674 18.1769 19.6677 18.3783 19.4684L24.6906 13.2391C24.8879 13.0439 25 12.7781 25 12.4999C25 12.2218 24.8889 11.957 24.6906 11.7608Z" fill="#0091BD"/>
</svg>
