<svg width="15" height="15" viewBox="0 0 15 15" fill="none" xmlns="http://www.w3.org/2000/svg">
<path d="M10.1724 8.82453L8.08098 7.25597V4.06079C8.08098 3.73952 7.82129 3.47984 7.50002 3.47984C7.17875 3.47984 6.91907 3.73952 6.91907 4.06079V7.54648C6.91907 7.72947 7.00505 7.90202 7.15145 8.01124L9.47522 9.75409C9.57978 9.83251 9.7018 9.87028 9.82321 9.87028C10.0004 9.87028 10.1747 9.79068 10.2886 9.63731C10.4815 9.38108 10.4292 9.01683 10.1724 8.82453Z" fill="#64C3D5"/>
<path d="M7.5 0C3.36425 0 0 3.36425 0 7.5C0 11.6358 3.36425 15 7.5 15C11.6358 15 15 11.6358 15 7.5C15 3.36425 11.6358 0 7.5 0ZM7.5 13.8381C4.00562 13.8381 1.16188 10.9944 1.16188 7.5C1.16188 4.00562 4.00562 1.16188 7.5 1.16188C10.995 1.16188 13.8381 4.00562 13.8381 7.5C13.8381 10.9944 10.9944 13.8381 7.5 13.8381Z" fill="#64C3D5"/>
</svg>
