<svg width="32" height="32" viewBox="0 0 32 32" fill="none" xmlns="http://www.w3.org/2000/svg">
              <path
                  d="M29.6034 5.5172H2.39656C1.07294 5.5172 0 6.59013 0 7.91376V24.0863C0 25.4098 1.07294 26.4828 2.39656 26.4828H29.6034C30.927 26.4828 32 25.4099 32 24.0863V7.91376C32 6.59013 30.9271 5.5172 29.6034 5.5172Z"
                  fill="#73AF00" />
              <path
                  d="M15.7132 8.45043L4.08471 15.5286C3.73153 15.7436 3.73153 16.2562 4.08471 16.4712L15.7132 23.5495C15.8894 23.6567 16.1107 23.6567 16.287 23.5495L27.9155 16.4712C28.2687 16.2563 28.2687 15.7437 27.9155 15.5287L16.287 8.45043C16.1108 8.34324 15.8894 8.34324 15.7132 8.45043Z"
                  fill="#FFE15A" />
              <path
                  d="M15.9999 20.4137C18.4376 20.4137 20.4137 18.4376 20.4137 15.9999C20.4137 13.5623 18.4376 11.5862 15.9999 11.5862C13.5623 11.5862 11.5862 13.5623 11.5862 15.9999C11.5862 18.4376 13.5623 20.4137 15.9999 20.4137Z"
                  fill="#41479B" />
              <path
                  d="M12.2126 13.742C12.0044 14.0906 11.8436 14.4695 11.7373 14.8718C14.1841 14.6877 17.8037 15.3722 20.1074 17.6076C20.2578 17.2238 20.3571 16.8149 20.3943 16.3875C18.0155 14.3854 14.7269 13.6735 12.2126 13.742Z"
                  fill="#F5F5F5" />
              <path
                  d="M16.183 17.5061L16.3005 17.8585L16.6719 17.8614C16.72 17.8618 16.7399 17.9231 16.7013 17.9517L16.4024 18.1724L16.5145 18.5265C16.529 18.5724 16.4768 18.6103 16.4377 18.5823L16.1355 18.3663L15.8333 18.5823C15.7942 18.6103 15.742 18.5724 15.7565 18.5265L15.8686 18.1724L15.5697 17.9517C15.531 17.9231 15.551 17.8618 15.599 17.8614L15.9705 17.8585L16.088 17.5061C16.1032 17.4605 16.1677 17.4605 16.183 17.5061Z"
                  fill="#F5F5F5" />
              <path
                  d="M17.6267 18.4177L17.6773 18.5693L17.8371 18.5706C17.8578 18.5707 17.8664 18.5971 17.8498 18.6094L17.7211 18.7044L17.7693 18.8568C17.7755 18.8766 17.7531 18.8929 17.7362 18.8808L17.6061 18.7879L17.4761 18.8808C17.4593 18.8929 17.4368 18.8766 17.443 18.8568L17.4912 18.7044L17.3626 18.6094C17.3459 18.5972 17.3545 18.5708 17.3752 18.5706L17.5351 18.5693L17.5856 18.4177C17.5923 18.398 17.6201 18.398 17.6267 18.4177Z"
                  fill="#F5F5F5" />
              <path
                  d="M15.5588 16.8367L15.6093 16.9884L15.7692 16.9896C15.7899 16.9897 15.7985 17.0162 15.7818 17.0285L15.6532 17.1234L15.7014 17.2759C15.7076 17.2956 15.6852 17.3119 15.6683 17.2999L15.5383 17.2069L15.4082 17.2999C15.3914 17.3119 15.3689 17.2956 15.3751 17.2759L15.4233 17.1234L15.2947 17.0285C15.278 17.0162 15.2866 16.9898 15.3073 16.9896L15.4672 16.9884L15.5177 16.8367C15.5244 16.8172 15.5522 16.8172 15.5588 16.8367Z"
                  fill="#F5F5F5" />
              <path
                  d="M12.7583 16.6528L12.8088 16.8045L12.9687 16.8057C12.9894 16.8058 12.998 16.8323 12.9813 16.8446L12.8527 16.9395L12.9009 17.092C12.9071 17.1117 12.8847 17.128 12.8678 17.116L12.7377 17.023L12.6076 17.116C12.5908 17.128 12.5683 17.1117 12.5746 17.092L12.6228 16.9395L12.4942 16.8446C12.4775 16.8323 12.4861 16.8059 12.5068 16.8057L12.6666 16.8045L12.7172 16.6528C12.724 16.6333 12.7517 16.6333 12.7583 16.6528Z"
                  fill="#F5F5F5" />
              <path
                  d="M15.101 18.3653L15.1516 18.5169L15.3115 18.5182C15.3321 18.5183 15.3408 18.5448 15.3241 18.5571L15.1955 18.652L15.2436 18.8044C15.2498 18.8242 15.2275 18.8405 15.2106 18.8284L15.0805 18.7355L14.9505 18.8284C14.9336 18.8405 14.9111 18.8242 14.9173 18.8044L14.9655 18.652L14.8369 18.5571C14.8203 18.5448 14.8288 18.5184 14.8495 18.5182L15.0094 18.5169L15.06 18.3653C15.0667 18.3457 15.0945 18.3457 15.101 18.3653Z"
                  fill="#F5F5F5" />
              <path
                  d="M13.8119 16.547L13.8533 16.671L13.984 16.6721C14.0009 16.6722 14.008 16.6938 13.9944 16.7039L13.8892 16.7815L13.9287 16.9061C13.9338 16.9223 13.9154 16.9356 13.9016 16.9258L13.7952 16.8498L13.6888 16.9258C13.675 16.9356 13.6567 16.9223 13.6618 16.9061L13.7012 16.7815L13.596 16.7039C13.5825 16.6938 13.5894 16.6722 13.6064 16.6721L13.7372 16.671L13.7785 16.547C13.7838 16.531 13.8065 16.531 13.8119 16.547Z"
                  fill="#F5F5F5" />
              <path
                  d="M17.7387 13.9871L17.7905 14.1422L17.954 14.1435C17.9752 14.1436 17.9839 14.1707 17.9668 14.1833L17.8353 14.2804L17.8847 14.4363C17.8911 14.4565 17.868 14.4732 17.8508 14.4609L17.7178 14.3658L17.5847 14.4609C17.5675 14.4733 17.5445 14.4565 17.5509 14.4363L17.6002 14.2804L17.4687 14.1833C17.4517 14.1707 17.4605 14.1437 17.4816 14.1435L17.6451 14.1422L17.6968 13.9871C17.7036 13.9668 17.732 13.9668 17.7387 13.9871Z"
                  fill="#F5F5F5" />
              <path
                  d="M12.9384 15.7884L12.9798 15.9124L13.1105 15.9135C13.1274 15.9136 13.1345 15.9352 13.1209 15.9453L13.0157 16.0229L13.0552 16.1476C13.0603 16.1637 13.0419 16.1771 13.0281 16.1672L12.9217 16.0912L12.8153 16.1672C12.8015 16.1771 12.7832 16.1637 12.7883 16.1476L12.8277 16.0229L12.7225 15.9453C12.7089 15.9352 12.7159 15.9137 12.7329 15.9135L12.8637 15.9124L12.905 15.7884C12.9103 15.7724 12.933 15.7724 12.9384 15.7884Z"
                  fill="#F5F5F5" />
              <path
                  d="M13.5696 17.5363L13.6322 17.7241L13.8302 17.7256C13.8558 17.7258 13.8664 17.7585 13.8458 17.7737L13.6865 17.8913L13.7463 18.0801C13.754 18.1045 13.7262 18.1248 13.7053 18.1098L13.5442 17.9946L13.3831 18.1098C13.3623 18.1247 13.3344 18.1045 13.3421 18.0801L13.4019 17.8913L13.2426 17.7737C13.2219 17.7585 13.2326 17.7258 13.2582 17.7256L13.4562 17.7241L13.5188 17.5363C13.5271 17.5119 13.5615 17.5119 13.5696 17.5363Z"
                  fill="#F5F5F5" />
              <path
                  d="M18.4315 18.457L18.4709 18.5752L18.5955 18.5761C18.6116 18.5763 18.6183 18.5968 18.6054 18.6064L18.5052 18.6804L18.5427 18.7991C18.5476 18.8145 18.5301 18.8272 18.5169 18.8178L18.4156 18.7454L18.3142 18.8178C18.3011 18.8272 18.2836 18.8145 18.2884 18.7991L18.326 18.6804L18.2258 18.6064C18.2129 18.5968 18.2196 18.5763 18.2357 18.5761L18.3602 18.5752L18.3996 18.457C18.4047 18.4417 18.4264 18.4417 18.4315 18.457Z"
                  fill="#F5F5F5" />
              <path
                  d="M18.8673 17.5551L18.9179 17.7068L19.0778 17.708C19.0984 17.7081 19.1071 17.7346 19.0904 17.7469L18.9618 17.8418L19.0099 17.9943C19.0161 18.014 18.9938 18.0303 18.9769 18.0183L18.8468 17.9253L18.7168 18.0183C18.6999 18.0303 18.6774 18.014 18.6837 17.9943L18.7319 17.8418L18.6033 17.7469C18.5866 17.7346 18.5952 17.7082 18.6159 17.708L18.7758 17.7068L18.8263 17.5551C18.8329 17.5355 18.8608 17.5355 18.8673 17.5551Z"
                  fill="#F5F5F5" />
            </svg>
