<svg width="40" height="41" viewBox="0 0 40 41" fill="none" xmlns="http://www.w3.org/2000/svg">
                    <g clip-path="url(#clip0)">
                    <path d="M38.229 29.4494H1.7707C1.09986 29.4494 0.55542 28.8859 0.55542 28.1916C0.55542 27.4973 1.09986 26.9338 1.7707 26.9338H38.229C38.8999 26.9338 39.4443 27.4973 39.4443 28.1916C39.4443 28.8859 38.8999 29.4494 38.229 29.4494Z" fill="white"/>
                    <path d="M25.2661 40.3506H14.7337C14.2411 40.3506 13.7988 40.0437 13.6108 39.5741C13.4245 39.1045 13.5265 38.5628 13.8749 38.2039C15.5698 36.4497 15.9263 33.9189 15.9296 33.8938C16.0203 33.2078 16.6231 32.7366 17.2972 32.8171C17.9599 32.911 18.4266 33.5399 18.3391 34.2258C18.3277 34.3248 18.1009 36.0136 17.1351 37.835H22.8421C21.8844 36.0237 21.6479 34.3332 21.6333 34.2359C21.5409 33.5483 22.0043 32.9127 22.6703 32.8154C23.3379 32.7198 23.9472 33.1994 24.0411 33.8871C24.0525 33.9608 24.4171 36.3507 25.9629 38.0597C26.2756 38.2878 26.4814 38.6651 26.4814 39.0928C26.4814 39.7871 25.937 40.3506 25.2661 40.3506V40.3506Z" fill="white"/>
                    <path d="M19.9998 15.1941C17.3197 15.1941 15.1387 12.9367 15.1387 10.1628C15.1387 7.38883 17.3197 5.13145 19.9998 5.13145C22.6799 5.13145 24.8609 7.38883 24.8609 10.1628C24.8609 12.9367 22.6799 15.1941 19.9998 15.1941ZM19.9998 7.64711C18.6597 7.64711 17.5692 8.7758 17.5692 10.1628C17.5692 11.5497 18.6597 12.6784 19.9998 12.6784C21.3398 12.6784 22.4303 11.5497 22.4303 10.1628C22.4303 8.7758 21.3398 7.64711 19.9998 7.64711Z" fill="white"/>
                    <path d="M19.9998 20.2254C14.2329 20.2254 8.84035 16.6968 5.57692 10.7867C5.36303 10.4009 5.36303 9.92462 5.57692 9.53889C8.84035 3.62878 14.2329 0.100159 19.9998 0.100159C25.7667 0.100159 31.1593 3.62878 34.4228 9.53889C34.6366 9.92462 34.6366 10.4009 34.4228 10.7867C31.1593 16.6968 25.7667 20.2254 19.9998 20.2254ZM8.04637 10.1628C10.895 14.9023 15.317 17.7097 19.9998 17.7097C24.6827 17.7097 29.1047 14.9023 31.9533 10.1628C29.1047 5.42328 24.6827 2.61581 19.9998 2.61581C15.317 2.61581 10.895 5.42328 8.04637 10.1628Z" fill="white"/>
                    <path d="M36.6087 35.3193H3.39107C1.82741 35.3193 0.55542 34.0028 0.55542 32.3844V8.06641C0.55542 7.37208 1.09986 6.80858 1.7707 6.80858C2.44153 6.80858 2.98598 7.37208 2.98598 8.06641V32.3844C2.98598 32.6125 3.1707 32.8037 3.39107 32.8037H36.6087C36.829 32.8037 37.0138 32.6125 37.0138 32.3844V8.06641C37.0138 7.37208 37.5582 6.80858 38.229 6.80858C38.8999 6.80858 39.4443 7.37208 39.4443 8.06641V32.3844C39.4443 34.0028 38.1723 35.3193 36.6087 35.3193Z" fill="white"/>
                    </g>
                    <defs>
                    <clipPath id="clip0">
                    <rect width="38.8889" height="40.2504" fill="white" transform="translate(0.55542 0.100159)"/>
                    </clipPath>
                    </defs>
                  </svg>
